<?xml version="1.0" encoding="utf-8"?>
<!-- Generator: Adobe Illustrator 21.0.0, SVG Export Plug-In . SVG Version: 6.00 Build 0)  -->
<svg version="1.1" baseProfile="tiny" id="图层_1"
	 xmlns="http://www.w3.org/2000/svg" xmlns:xlink="http://www.w3.org/1999/xlink" x="0px" y="0px" viewBox="0 0 16 16"
	 xml:space="preserve">
<g id="图层_4">
</g>
<g id="图层_3">
</g>
<g id="图层_2">
</g>
<g>
	<g>
		<polygon fill="#A5A5A5" points="11,4 15,4 11,0 		"/>
	</g>
</g>
<g>
	<g>
		<path fill="#A5A5A5" d="M1.9,0H11v1H2.4C2.1,1,1.9,1.2,1.9,1.5v13c0,0.3,0.2,0.5,0.5,0.5H8v1H1.9c-0.6,0-1-0.5-1-1V1
			C0.9,0.5,1.3,0,1.9,0z"/>
	</g>
</g>
<g>
	<g>
		<rect x="14" y="4" fill="#A5A5A5" width="1" height="4"/>
	</g>
</g>
<g>
	<g>
		<path fill="#A5A5A5" d="M15,15.5c-0.1,0-0.3,0-0.4-0.1l-6-6c-0.2-0.2-0.2-0.5,0-0.7s0.5-0.2,0.7,0l6,6c0.2,0.2,0.2,0.5,0,0.7
			C15.3,15.5,15.1,15.5,15,15.5z"/>
	</g>
</g>
<g>
	<g>
		<path fill="#A5A5A5" d="M9,15.5c-0.1,0-0.3,0-0.4-0.1c-0.2-0.2-0.2-0.5,0-0.7l6-6c0.2-0.2,0.5-0.2,0.7,0s0.2,0.5,0,0.7l-6,6
			C9.3,15.5,9.1,15.5,9,15.5z"/>
	</g>
</g>
</svg>
