<?xml version="1.0" encoding="utf-8"?>
<!-- Generator: Adobe Illustrator 21.0.0, SVG Export Plug-In . SVG Version: 6.00 Build 0)  -->
<svg version="1.1" baseProfile="tiny" id="图层_1"
	 xmlns="http://www.w3.org/2000/svg" xmlns:xlink="http://www.w3.org/1999/xlink" x="0px" y="0px" viewBox="0 0 24 24"
	 xml:space="preserve">
<g id="图层_4">
</g>
<g id="图层_3">
</g>
<g id="图层_2">
</g>
<g>
	<path fill="#A5A5A5" d="M22.5,18h-21C0.7,18,0,17.3,0,16.5v-13C0,2.7,0.7,2,1.5,2h21C23.3,2,24,2.7,24,3.5v13
		C24,17.3,23.3,18,22.5,18z M1.5,3C1.2,3,1,3.2,1,3.5v13C1,16.8,1.2,17,1.5,17h21c0.3,0,0.5-0.2,0.5-0.5v-13C23,3.2,22.8,3,22.5,3
		H1.5z"/>
</g>
<g>
	<path fill="#A5A5A5" d="M19.5,22h-15C4.2,22,4,21.8,4,21.5S4.2,21,4.5,21h15c0.3,0,0.5,0.2,0.5,0.5S19.8,22,19.5,22z"/>
</g>
<g>
	<rect x="11" y="17" fill="#A5A5A5" width="2" height="4.5"/>
</g>
</svg>
