<?xml version="1.0" encoding="utf-8"?>
<!-- Generator: Adobe Illustrator 21.0.0, SVG Export Plug-In . SVG Version: 6.00 Build 0)  -->
<svg version="1.1" baseProfile="tiny" id="图层_1"
	 xmlns="http://www.w3.org/2000/svg" xmlns:xlink="http://www.w3.org/1999/xlink" x="0px" y="0px" viewBox="0 0 24 24"
	 xml:space="preserve">
<g id="图层_4">
</g>
<g id="图层_3">
</g>
<g id="图层_2">
</g>
<g>
	<g>
		<g>
			<g>
				<path fill="#A5A5A5" d="M10.5,12h-10C0.2,12,0,12.2,0,12.5v8C0,20.8,0.2,21,0.5,21h10c0.3,0,0.5-0.2,0.5-0.5v-8
					C11,12.2,10.8,12,10.5,12z M10,20H1V13H10V20z"/>
			</g>
		</g>
	</g>
	<g>
		<g>
			<g>
				<path fill="#A5A5A5" d="M5.5,24C5.2,24,5,23.8,5,23.5v-3C5,20.2,5.2,20,5.5,20S6,20.2,6,20.5v3C6,23.8,5.8,24,5.5,24z"/>
			</g>
		</g>
	</g>
	<g>
		<g>
			<g>
				<path fill="#A5A5A5" d="M9.5,24h-8C1.2,24,1,23.8,1,23.5S1.2,23,1.5,23h8c0.3,0,0.5,0.2,0.5,0.5S9.8,24,9.5,24z"/>
			</g>
		</g>
	</g>
	<g>
		<g>
			<g>
				<path fill="#A5A5A5" d="M23.5,0h-10C13.2,0,13,0.2,13,0.5v8C13,8.8,13.2,9,13.5,9h10C23.8,9,24,8.8,24,8.5v-8
					C24,0.2,23.8,0,23.5,0z M23,8H14V1H23V8z"/>
			</g>
		</g>
	</g>
	<g>
		<g>
			<g>
				<path fill="#A5A5A5" d="M18.5,12c-0.3,0-0.5-0.2-0.5-0.5v-3C18,8.2,18.2,8,18.5,8S19,8.2,19,8.5v3C19,11.8,18.8,12,18.5,12z"/>
			</g>
		</g>
	</g>
	<g>
		<g>
			<g>
				<path fill="#A5A5A5" d="M22.5,12h-8c-0.3,0-0.5-0.2-0.5-0.5s0.2-0.5,0.5-0.5h8c0.3,0,0.5,0.2,0.5,0.5S22.8,12,22.5,12z"/>
			</g>
		</g>
	</g>
</g>
<g>
	<g>
		<path fill="#A5A5A5" d="M12,3h-1V2h1V3z M10,3H9V2h1V3z M8,3H7V2h1V3z M6,3H5V2h1V3z M4,3H3V2h1V3z M2,3H1V2h1V3z"/>
	</g>
</g>
<g>
	<g>
		<path fill="#A5A5A5" d="M2,11H1v-1h1V11z M2,9H1V8h1V9z M2,7H1V6h1V7z M2,5H1V4h1V5z"/>
	</g>
</g>
<g>
	<g>
		<path fill="#A5A5A5" d="M23,22h-1v-1h1V22z M21,22h-1v-1h1V22z M19,22h-1v-1h1V22z M17,22h-1v-1h1V22z M15,22h-1v-1h1V22z M13,22
			h-1v-1h1V22z"/>
	</g>
</g>
<g>
	<g>
		<path fill="#A5A5A5" d="M23,20h-1v-1h1V20z M23,18h-1v-1h1V18z M23,16h-1v-1h1V16z M23,14h-1v-1h1V14z"/>
	</g>
</g>
</svg>
