<?xml version="1.0" encoding="utf-8"?>
<!-- Generator: Adobe Illustrator 21.0.0, SVG Export Plug-In . SVG Version: 6.00 Build 0)  -->
<svg version="1.1" baseProfile="tiny" id="图层_1"
	 xmlns="http://www.w3.org/2000/svg" xmlns:xlink="http://www.w3.org/1999/xlink" x="0px" y="0px" viewBox="0 0 24 24"
	 xml:space="preserve">
<g id="图层_4">
</g>
<g id="图层_3">
</g>
<g id="图层_2">
</g>
<g>
	<g>
		<path fill="#A5A5A5" d="M12,1c6.1,0,11,4.9,11,11s-4.9,11-11,11C5.9,23,1,18.1,1,12S5.9,1,12,1 M12,0C5.4,0,0,5.4,0,12
			c0,6.6,5.4,12,12,12s12-5.4,12-12C24,5.4,18.6,0,12,0L12,0z"/>
	</g>
</g>
<g>
	<g>
		<path fill="#A5A5A5" d="M12.3,7c0.9,0,1.6,0.2,2.1,0.7c0.5,0.5,0.8,1.1,0.8,2c0,0.7-0.2,1.2-0.5,1.7c-0.1,0.2-0.5,0.5-1.2,1.1
			c-0.3,0.2-0.5,0.5-0.6,0.7c-0.2,0.3-0.2,0.6-0.2,0.9v0.2h-1.5v-0.2c0-0.5,0.1-0.9,0.3-1.3c0.2-0.4,0.7-0.9,1.6-1.7l0.2-0.3
			c0.2-0.3,0.4-0.6,0.4-1c0-0.5-0.1-0.9-0.4-1.1c-0.3-0.3-0.7-0.4-1.2-0.4c-0.6,0-1.1,0.2-1.3,0.6c-0.2,0.3-0.4,0.8-0.4,1.4H9.1
			c0-1,0.3-1.8,0.9-2.4C10.5,7.3,11.3,7,12.3,7L12.3,7z M12.1,15c0.3,0,0.5,0.1,0.7,0.3c0.2,0.2,0.3,0.4,0.3,0.7
			c0,0.3-0.1,0.5-0.3,0.7c-0.2,0.2-0.4,0.3-0.7,0.3c-0.3,0-0.5-0.1-0.7-0.3c-0.2-0.2-0.3-0.4-0.3-0.7c0-0.3,0.1-0.5,0.3-0.7
			C11.5,15.1,11.8,15,12.1,15L12.1,15z"/>
	</g>
</g>
</svg>
