<?xml version="1.0" encoding="utf-8"?>
<!-- Generator: Adobe Illustrator 21.0.0, SVG Export Plug-In . SVG Version: 6.00 Build 0)  -->
<svg version="1.1" baseProfile="tiny" id="图层_1"
	 xmlns="http://www.w3.org/2000/svg" xmlns:xlink="http://www.w3.org/1999/xlink" x="0px" y="0px" viewBox="0 0 24 24"
	 xml:space="preserve">
<g id="图层_4">
</g>
<g id="图层_3">
</g>
<g id="图层_2">
</g>
<g>
	<g>
		<path fill="#A5A5A5" d="M12,1c6.1,0,11,4.9,11,11s-4.9,11-11,11S1,18.1,1,12S5.9,1,12,1 M12,0C5.4,0,0,5.4,0,12
			c0,6.6,5.4,12,12,12c6.6,0,12-5.4,12-12C24,5.4,18.6,0,12,0L12,0z"/>
	</g>
</g>
<g>
	<g>
		<circle fill="#A5A5A5" cx="12" cy="7.3" r="1"/>
	</g>
</g>
<g>
	<g>
		<path fill="#A5A5A5" d="M12,18.3L12,18.3c-0.6,0-1-0.4-1-1v-5.9c0-0.5,0.4-1,1-1h0c0.5,0,1,0.4,1,1v5.9C13,17.8,12.6,18.3,12,18.3
			z"/>
	</g>
</g>
</svg>
