<?xml version="1.0" encoding="utf-8"?>
<!-- Generator: Adobe Illustrator 21.0.0, SVG Export Plug-In . SVG Version: 6.00 Build 0)  -->
<svg version="1.1" baseProfile="tiny" id="图层_1"
	 xmlns="http://www.w3.org/2000/svg" xmlns:xlink="http://www.w3.org/1999/xlink" x="0px" y="0px" viewBox="0 0 16 16"
	 xml:space="preserve">
<g id="图层_4">
</g>
<g id="图层_3">
</g>
<g id="图层_2">
</g>
<g>
	<g>
		<path fill="#A5A5A5" d="M14.5,4.5h-13C1.2,4.5,1,4.3,1,4s0.2-0.5,0.5-0.5h13C14.8,3.5,15,3.7,15,4S14.8,4.5,14.5,4.5z"/>
	</g>
	<g>
		<path fill="#A5A5A5" d="M14.5,8.5h-13C1.2,8.5,1,8.3,1,8s0.2-0.5,0.5-0.5h13C14.8,7.5,15,7.7,15,8S14.8,8.5,14.5,8.5z"/>
	</g>
	<g>
		<path fill="#A5A5A5" d="M14.5,12.5h-13C1.2,12.5,1,12.3,1,12s0.2-0.5,0.5-0.5h13c0.3,0,0.5,0.2,0.5,0.5S14.8,12.5,14.5,12.5z"/>
	</g>
</g>
</svg>
