<?xml version="1.0" encoding="utf-8"?>
<!-- Generator: Adobe Illustrator 21.0.0, SVG Export Plug-In . SVG Version: 6.00 Build 0)  -->
<svg version="1.1" baseProfile="tiny" id="图层_1"
	 xmlns="http://www.w3.org/2000/svg" xmlns:xlink="http://www.w3.org/1999/xlink" x="0px" y="0px" viewBox="0 0 24 24"
	 xml:space="preserve">
<g id="图层_4">
</g>
<g id="图层_3">
</g>
<g id="图层_2">
</g>
<g>
	<g>
		<path fill="#A5A5A5" d="M11.5,8.6c-2.4,0-4.3-1.9-4.3-4.3s1.9-4.3,4.3-4.3s4.3,2,4.3,4.3S13.9,8.6,11.5,8.6z M11.5,0.9
			c-1.8,0-3.3,1.5-3.3,3.3c0,1.8,1.5,3.3,3.3,3.3s3.3-1.5,3.3-3.3C14.8,2.4,13.3,0.9,11.5,0.9z"/>
	</g>
</g>
<g>
	<g>
		<path fill="#A5A5A5" d="M1.5,20.2c-0.3,0-0.5-0.2-0.5-0.5C1,13.9,5.7,9.2,11.5,9.2c2.4,0,4.8,0.9,6.7,2.4c0.8,0.6,1.4,1.4,2,2.2
			c0.2,0.2,0.1,0.5-0.1,0.7c-0.2,0.2-0.5,0.1-0.7-0.1c-0.5-0.7-1.1-1.4-1.8-2c-1.7-1.4-3.9-2.2-6.1-2.2c-5.2,0-9.5,4.3-9.5,9.5
			C2,19.9,1.8,20.2,1.5,20.2z"/>
	</g>
</g>
<g>
	<g>
		<path fill="#A5A5A5" d="M21.5,19h-9c-0.3,0-0.5-0.2-0.5-0.5s0.2-0.5,0.5-0.5h7.8l-1.1-1.1c-0.2-0.2-0.2-0.5,0-0.7s0.5-0.2,0.7,0
			l2,2c0.1,0.1,0.2,0.4,0.1,0.5S21.7,19,21.5,19z"/>
	</g>
</g>
<g>
	<g>
		<path fill="#A5A5A5" d="M14.5,23c-0.1,0-0.3,0-0.4-0.1l-2-2C12,20.7,12,20.5,12,20.3s0.3-0.3,0.5-0.3h9c0.3,0,0.5,0.2,0.5,0.5
			S21.8,21,21.5,21h-7.8l1.1,1.1c0.2,0.2,0.2,0.5,0,0.7C14.8,23,14.6,23,14.5,23z"/>
	</g>
</g>
</svg>
