<?xml version="1.0" encoding="utf-8"?>
<!-- Generator: Adobe Illustrator 21.0.0, SVG Export Plug-In . SVG Version: 6.00 Build 0)  -->
<svg version="1.1" baseProfile="tiny" id="图层_1"
	 xmlns="http://www.w3.org/2000/svg" xmlns:xlink="http://www.w3.org/1999/xlink" x="0px" y="0px" viewBox="0 0 24 24"
	 xml:space="preserve">
<g id="图层_4">
</g>
<g id="图层_3">
</g>
<g id="图层_2">
</g>
<g>
	<g>
		<path fill="#A5A5A5" d="M12,24C5.4,24,0,18.6,0,12c0-0.8,0.1-1.6,0.2-2.4c0-0.2,0.2-0.3,0.3-0.4c0.2-0.1,0.4,0,0.5,0.1l4.3,4.3
			c0.2,0.2,0.2,0.5,0,0.7s-0.5,0.2-0.7,0l-3.6-3.6C1,11.2,1,11.6,1,12c0,6.1,4.9,11,11,11c1.8,0,3.4-0.4,5-1.2c2-1,3.7-2.7,4.8-4.8
			c0.1-0.2,0.4-0.3,0.7-0.2c0.2,0.1,0.3,0.4,0.2,0.7c-1.1,2.2-3,4.1-5.2,5.2C15.8,23.6,13.9,24,12,24z"/>
	</g>
</g>
<g>
	<g>
		<path fill="#A5A5A5" d="M23.3,14.8c-0.1,0-0.3-0.1-0.4-0.1l-4.3-4.3c-0.2-0.2-0.2-0.5,0-0.7s0.5-0.2,0.7,0l3.6,3.6
			c0-0.4,0.1-0.8,0.1-1.2c0-6.1-4.9-11-11-11c-1.8,0-3.5,0.4-5,1.2C5,3.3,3.3,5,2.2,7C2.1,7.2,1.8,7.3,1.5,7.2
			C1.3,7.1,1.2,6.8,1.3,6.5c1.1-2.2,3-4.1,5.2-5.2C8.2,0.4,10.1,0,12,0c6.6,0,12,5.4,12,12c0,0.8-0.1,1.6-0.2,2.4
			c0,0.2-0.2,0.3-0.3,0.4C23.4,14.8,23.3,14.8,23.3,14.8z"/>
	</g>
</g>
</svg>
