<?xml version="1.0" encoding="utf-8"?>
<!-- Generator: Adobe Illustrator 21.0.0, SVG Export Plug-In . SVG Version: 6.00 Build 0)  -->
<svg version="1.1" baseProfile="tiny" id="图层_1"
	 xmlns="http://www.w3.org/2000/svg" xmlns:xlink="http://www.w3.org/1999/xlink" x="0px" y="0px" viewBox="0 0 16 16"
	 xml:space="preserve">
<g id="图层_4">
</g>
<g id="图层_3">
</g>
<g id="图层_2">
</g>
<g>
	<g>
		<g>
			<g>
				<path fill="#A5A5A5" d="M13,3H5L4,2H0v13h14V9.9L13.2,14H1V3h2.6l0.7,0.7L4.6,4H13v2h1V4C14,3.5,13.5,3,13,3z"/>
			</g>
		</g>
		<g>
			<g>
				<path fill="#A5A5A5" d="M14.8,5h-12c-0.5,0-0.9,0.3-1,0.8L1,10l-1,5h14l1.8-8.8C15.9,5.6,15.4,5,14.8,5z M14,9.9L13.2,14h-12
					l1.6-8h12L14,9.9z"/>
			</g>
		</g>
	</g>
</g>
</svg>
