<?xml version="1.0" encoding="utf-8"?>
<!-- Generator: Adobe Illustrator 21.0.0, SVG Export Plug-In . SVG Version: 6.00 Build 0)  -->
<svg version="1.1" baseProfile="tiny" id="图层_1"
	 xmlns="http://www.w3.org/2000/svg" xmlns:xlink="http://www.w3.org/1999/xlink" x="0px" y="0px" viewBox="0 0 24 24"
	 xml:space="preserve">
<g id="图层_4">
</g>
<g id="图层_3">
</g>
<g id="图层_2">
</g>
<g>
	<g>
		<path fill="#A5A5A5" d="M20,22.5H19v-10c0-0.3-0.2-0.5-0.5-0.5h-13C5.2,12,5,12.2,5,12.5v10H4v-10C4,11.7,4.7,11,5.5,11h13
			c0.8,0,1.5,0.7,1.5,1.5V22.5z"/>
	</g>
</g>
<g>
	<g>
		<path fill="#A5A5A5" d="M18.5,7h-13C5.2,7,5,6.8,5,6.5S5.2,6,5.5,6h13C18.8,6,19,6.2,19,6.5S18.8,7,18.5,7z"/>
	</g>
</g>
<g id="XMLID_11_">
	<g>
		<path fill="#A5A5A5" d="M21.5,23h-19C1.7,23,1,22.3,1,21.5v-19C1,1.7,1.7,1,2.5,1h19C22.3,1,23,1.7,23,2.5v19
			C23,22.3,22.3,23,21.5,23z M2.5,2C2.2,2,2,2.2,2,2.5v19C2,21.8,2.2,22,2.5,22h19c0.3,0,0.5-0.2,0.5-0.5v-19C22,2.2,21.8,2,21.5,2
			H2.5z"/>
	</g>
</g>
</svg>
