<?xml version="1.0" encoding="utf-8"?>
<!-- Generator: Adobe Illustrator 21.0.0, SVG Export Plug-In . SVG Version: 6.00 Build 0)  -->
<svg version="1.1" baseProfile="tiny" id="图层_1"
	 xmlns="http://www.w3.org/2000/svg" xmlns:xlink="http://www.w3.org/1999/xlink" x="0px" y="0px" viewBox="0 0 24 24"
	 xml:space="preserve">
<g id="图层_4">
</g>
<g id="图层_3">
</g>
<g id="图层_2">
</g>
<g>
	<g>
		<path fill="#A5A5A5" d="M16,0v1H2.5C2.2,1,2,1.2,2,1.5v21C2,22.8,2.2,23,2.5,23h9.1v1H2.5C1.7,24,1,23.3,1,22.5v-21
			C1,0.7,1.7,0,2.5,0H16z"/>
	</g>
</g>
<g>
	<g>
		<polygon fill="#A5A5A5" points="16,6 22,6 16,0 		"/>
	</g>
</g>
<g>
	<g>
		<rect x="21" y="6" fill="#A5A5A5" width="1" height="6"/>
	</g>
</g>
<g>
	<g>
		<path fill="#A5A5A5" d="M22.5,23c-0.1,0-0.3,0-0.4-0.1l-9-9c-0.2-0.2-0.2-0.5,0-0.7s0.5-0.2,0.7,0l9,9c0.2,0.2,0.2,0.5,0,0.7
			C22.8,23,22.6,23,22.5,23z"/>
	</g>
</g>
<g>
	<g>
		<path fill="#A5A5A5" d="M13.5,23c-0.1,0-0.3,0-0.4-0.1c-0.2-0.2-0.2-0.5,0-0.7l9-9c0.2-0.2,0.5-0.2,0.7,0s0.2,0.5,0,0.7l-9,9
			C13.8,23,13.6,23,13.5,23z"/>
	</g>
</g>
</svg>
