<?xml version="1.0" encoding="utf-8"?>
<!-- Generator: Adobe Illustrator 21.0.0, SVG Export Plug-In . SVG Version: 6.00 Build 0)  -->
<svg version="1.1" baseProfile="tiny" id="图层_1"
	 xmlns="http://www.w3.org/2000/svg" xmlns:xlink="http://www.w3.org/1999/xlink" x="0px" y="0px" viewBox="0 0 24 24"
	 xml:space="preserve">
<g id="图层_4">
</g>
<g id="图层_3">
</g>
<g id="图层_2">
</g>
<g>
	<g>
		<path fill="#A5A5A5" d="M23.4,6.7C23,6.3,22.4,6,21.8,6h-0.1c-0.1-1.8-1-2-2-2L8.6,4.1L6.3,2H0v19.4L-0.1,22H0h21.7l0.1-0.4
			l2.1-13.2C24,7.8,23.8,7.2,23.4,6.7z M1,3h4.9l2.3,2.1L19.8,5c0.7,0,0.9,0,1,1H3.6c-1,0-1.8,0.7-1.9,1.6L1,13.3V3z M21.8,15.2
			L20.9,21H1.1L2.7,7.8C2.8,7.3,3.2,7,3.6,7h17.2h1h0c0.3,0,0.6,0.1,0.8,0.4c0.2,0.2,0.3,0.5,0.3,0.8L21.8,15.2z"/>
	</g>
</g>
</svg>
