<?xml version="1.0" encoding="utf-8"?>
<!-- Generator: Adobe Illustrator 21.0.0, SVG Export Plug-In . SVG Version: 6.00 Build 0)  -->
<svg version="1.1" baseProfile="tiny" id="图层_1"
	 xmlns="http://www.w3.org/2000/svg" xmlns:xlink="http://www.w3.org/1999/xlink" x="0px" y="0px" viewBox="0 0 24 24"
	 xml:space="preserve">
<g id="图层_4">
</g>
<g id="图层_3">
</g>
<g id="图层_2">
</g>
<g>
	<g>
		<path fill="#A5A5A5" d="M22.5,18.5c-0.1,0-0.3,0-0.4-0.1l-7.5-7.5c-0.2-0.2-0.2-0.5,0-0.7s0.5-0.2,0.7,0l7.5,7.5
			c0.2,0.2,0.2,0.5,0,0.7C22.8,18.5,22.6,18.5,22.5,18.5z"/>
	</g>
</g>
<g>
	<g>
		<path fill="#A5A5A5" d="M15,18.5c-0.1,0-0.3,0-0.4-0.1c-0.2-0.2-0.2-0.5,0-0.7l7.5-7.5c0.2-0.2,0.5-0.2,0.7,0s0.2,0.5,0,0.7
			l-7.5,7.5C15.3,18.5,15.1,18.5,15,18.5z"/>
	</g>
</g>
<g>
	<g>
		<g>
			<g>
				<path fill="#A5A5A5" d="M10.5,4h-10C0.2,4,0,4.2,0,4.5v8C0,12.8,0.2,13,0.5,13h10c0.3,0,0.5-0.2,0.5-0.5v-8
					C11,4.2,10.8,4,10.5,4z M10,12H1V5H10V12z"/>
			</g>
		</g>
	</g>
	<g>
		<g>
			<g>
				<path fill="#A5A5A5" d="M5.5,16C5.2,16,5,15.8,5,15.5v-3C5,12.2,5.2,12,5.5,12S6,12.2,6,12.5v3C6,15.8,5.8,16,5.5,16z"/>
			</g>
		</g>
	</g>
	<g>
		<g>
			<g>
				<path fill="#A5A5A5" d="M9.5,16h-8C1.2,16,1,15.8,1,15.5S1.2,15,1.5,15h8c0.3,0,0.5,0.2,0.5,0.5S9.8,16,9.5,16z"/>
			</g>
		</g>
	</g>
	<g>
		<g>
			<g>
				<path fill="#A5A5A5" d="M15.5,0h-10C5.2,0,5,0.2,5,0.5V5H6V1H15V8h-5V9h5.5C15.8,9,16,8.8,16,8.5v-8C16,0.2,15.8,0,15.5,0z"/>
			</g>
		</g>
	</g>
	<g>
		<g>
			<g>
				<path fill="#A5A5A5" d="M11,8.5v3c0,0.3-0.2,0.5-0.5,0.5S10,11.8,10,11.5v-3C10,8.2,10.2,8,10.5,8S11,8.2,11,8.5z"/>
			</g>
		</g>
	</g>
	<g>
		<g>
			<g>
				<path fill="#A5A5A5" d="M15,11.5c0,0.3-0.2,0.5-0.5,0.5H10V11h4.5C14.8,11,15,11.2,15,11.5z"/>
			</g>
		</g>
	</g>
	<g>
		<g>
			<g>
				<path fill="#A5A5A5" d="M14.5,21h-9C5.2,21,5,20.8,5,20.5v-2C5,18.2,5.2,18,5.5,18S6,18.2,6,18.5V20h8.5c0.3,0,0.5,0.2,0.5,0.5
					S14.8,21,14.5,21z"/>
			</g>
		</g>
	</g>
	<g>
		<g>
			<g>
				<path fill="#A5A5A5" d="M23.5,21h-6c-0.3,0-0.5-0.2-0.5-0.5s0.2-0.5,0.5-0.5h6c0.3,0,0.5,0.2,0.5,0.5S23.8,21,23.5,21z"/>
			</g>
		</g>
	</g>
	<g>
		<g>
			<g>
				<path fill="#A5A5A5" d="M20.5,24c-0.3,0-0.5-0.2-0.5-0.5v-6c0-0.3,0.2-0.5,0.5-0.5s0.5,0.2,0.5,0.5v6C21,23.8,20.8,24,20.5,24z"
					/>
			</g>
		</g>
	</g>
	<g>
		<g>
			<g>
				<path fill="#A5A5A5" d="M21.5,19h-2c-0.3,0-0.5,0.2-0.5,0.5v2c0,0.3,0.2,0.5,0.5,0.5h2c0.3,0,0.5-0.2,0.5-0.5v-2
					C22,19.2,21.8,19,21.5,19z M21,21H20V20H21V21z"/>
			</g>
		</g>
	</g>
</g>
</svg>
