<?xml version="1.0" encoding="utf-8"?>
<!-- Generator: Adobe Illustrator 21.0.0, SVG Export Plug-In . SVG Version: 6.00 Build 0)  -->
<svg version="1.1" baseProfile="tiny" id="图层_1"
	 xmlns="http://www.w3.org/2000/svg" xmlns:xlink="http://www.w3.org/1999/xlink" x="0px" y="0px" viewBox="0 0 16 16"
	 xml:space="preserve">
<g id="图层_4">
</g>
<g id="图层_3">
</g>
<g id="图层_2">
</g>
<g>
	<g>
		<path fill="#A5A5A5" d="M11.5,7h-7C3.7,7,3,7.7,3,8.5v6c0,0.2,0,0.3,0.1,0.5h1.1C4.1,14.9,4,14.7,4,14.5v-6C4,8.2,4.2,8,4.5,8h7
			C11.8,8,12,8.2,12,8.5v6c0,0.2-0.1,0.4-0.3,0.5h1.1c0.1-0.1,0.1-0.3,0.1-0.5v-6C13,7.7,12.3,7,11.5,7z"/>
	</g>
	<g>
		<rect x="4" y="4" fill="#A5A5A5" width="8" height="0.9"/>
	</g>
	<g id="XMLID_2_">
		<path fill="#A5A5A5" d="M13.5,1h-11C1.7,1,1,1.7,1,2.5v11C1,14.3,1.7,15,2.5,15h11c0.8,0,1.5-0.7,1.5-1.5v-11
			C15,1.7,14.3,1,13.5,1z M14,13.5c0,0.3-0.2,0.5-0.5,0.5h-11C2.2,14,2,13.8,2,13.5v-11C2,2.2,2.2,2,2.5,2h11C13.8,2,14,2.2,14,2.5
			V13.5z"/>
	</g>
</g>
</svg>
