<?xml version="1.0" encoding="utf-8"?>
<!-- Generator: Adobe Illustrator 21.0.0, SVG Export Plug-In . SVG Version: 6.00 Build 0)  -->
<svg version="1.1" baseProfile="tiny" id="图层_1"
	 xmlns="http://www.w3.org/2000/svg" xmlns:xlink="http://www.w3.org/1999/xlink" x="0px" y="0px" viewBox="0 0 24 24"
	 xml:space="preserve">
<g id="图层_4">
</g>
<g id="图层_3">
</g>
<g id="图层_2">
</g>
<g>
	<g>
		<g>
			<path fill="#A5A5A5" d="M22.2,18.3c0.4,0,0.8-0.4,0.8-0.8c0-0.4-0.4-0.8-0.8-0.8h-0.9c0-0.2-0.1-0.3-0.1-0.4l0.8-0.4
				c0.4-0.2,0.5-0.7,0.3-1.1c-0.2-0.4-0.7-0.5-1.1-0.3l-0.8,0.4c-0.1-0.1-0.2-0.2-0.3-0.3l0.4-0.8c0.2-0.4,0.1-0.9-0.3-1.1
				c-0.4-0.2-0.9-0.1-1.1,0.3l-0.4,0.8c-0.1,0-0.3-0.1-0.4-0.1v-0.9c0-0.4-0.4-0.8-0.8-0.8s-0.8,0.4-0.8,0.8v0.9
				c-0.2,0-0.3,0.1-0.4,0.1L15.8,13c-0.2-0.4-0.7-0.5-1.1-0.3c-0.4,0.2-0.5,0.7-0.3,1.1l0.4,0.8c-0.1,0.1-0.2,0.2-0.3,0.3l-0.8-0.4
				c-0.4-0.2-0.9-0.1-1.1,0.3c-0.2,0.4-0.1,0.9,0.3,1.1l0.8,0.4c0,0.1-0.1,0.3-0.1,0.4h-0.9c-0.4,0-0.8,0.4-0.8,0.8
				c0,0.4,0.4,0.8,0.8,0.8h0.9c0,0.2,0.1,0.3,0.1,0.4L13,19.2c-0.4,0.2-0.5,0.7-0.3,1.1c0.2,0.4,0.7,0.5,1.1,0.3l0.8-0.4
				c0.1,0.1,0.2,0.2,0.3,0.3l-0.4,0.8c-0.2,0.4-0.1,0.9,0.3,1.1s0.9,0.1,1.1-0.3l0.4-0.8c0.1,0,0.3,0.1,0.4,0.1v0.9
				c0,0.4,0.4,0.8,0.8,0.8s0.8-0.4,0.8-0.8v-0.9c0.2,0,0.3-0.1,0.4-0.1l0.4,0.8c0.2,0.4,0.7,0.5,1.1,0.3s0.5-0.7,0.3-1.1l-0.4-0.8
				c0.1-0.1,0.2-0.2,0.3-0.3l0.8,0.4c0.4,0.2,0.9,0.1,1.1-0.3c0.2-0.4,0.1-0.9-0.3-1.1l-0.8-0.4c0-0.1,0.1-0.3,0.1-0.4H22.2z
				 M17.5,19.9c-1.3,0-2.4-1.1-2.4-2.4s1.1-2.4,2.4-2.4s2.4,1.1,2.4,2.4S18.8,19.9,17.5,19.9z"/>
		</g>
	</g>
	<g>
		<g>
			<circle fill="#A5A5A5" cx="17.5" cy="17.5" r="0.8"/>
		</g>
	</g>
</g>
<g>
	<g>
		<path fill="#A5A5A5" d="M12.3,21.9c-0.1,0-0.2,0.1-0.3,0.1v-0.5c-0.4-0.5-0.7-1.1-1-1.7v2.2c-1.6-0.3-3.1-2-4-4.4
			c1.1,0.3,2.3,0.4,3.5,0.4c0-0.2,0-0.5,0-0.7c0-0.1,0-0.2,0-0.3c-1.4-0.1-2.7-0.3-3.9-0.6C6.3,15,6.1,13.6,6,12h5v2.7
			c0.3-0.6,0.6-1.2,1-1.7v-1h1c0.5-0.4,1.1-0.7,1.7-1H12V6c1.6,0,3,0.3,4.4,0.6c0.3,1.2,0.5,2.5,0.6,3.9c0.1,0,0.2,0,0.3,0
			c0.2,0,0.5,0,0.7,0c-0.1-1.2-0.2-2.4-0.4-3.5c2.4,0.9,4.1,2.4,4.4,4h-2.2c0.6,0.3,1.2,0.6,1.7,1h0.5c0,0.1-0.1,0.2-0.1,0.3
			c0.4,0.3,0.7,0.7,1,1.1c0.1-0.6,0.2-1.3,0.2-1.9C23,5.2,17.8,0,11.5,0S0,5.2,0,11.5S5.2,23,11.5,23c0.7,0,1.3-0.1,1.9-0.2
			C13,22.5,12.7,22.2,12.3,21.9z M21.5,8.2c-1-1-2.5-1.8-4.3-2.4c-0.6-1.8-1.4-3.3-2.4-4.3C17.9,2.6,20.4,5.1,21.5,8.2z M12,1.1
			c1.6,0.3,3.1,2,4,4.4C14.7,5.2,13.4,5,12,5V1.1z M11,11H6c0-1.6,0.3-3,0.6-4.4C8,6.3,9.4,6.1,11,6V11z M11,1.1v4
			C9.6,5,8.3,5.2,7,5.5C7.9,3,9.4,1.3,11,1.1z M8.2,1.5c-1,1-1.8,2.5-2.4,4.3C4,6.4,2.6,7.2,1.5,8.2C2.6,5.1,5.1,2.6,8.2,1.5z
			 M5.5,7C5.2,8.3,5,9.6,5,11h-4C1.3,9.4,3,7.9,5.5,7z M5,12c0,1.4,0.2,2.7,0.5,4c-2.4-0.9-4.1-2.4-4.4-4H5z M1.5,14.8
			c1,1,2.5,1.8,4.3,2.4c0.6,1.8,1.4,3.3,2.4,4.3C5.1,20.4,2.6,17.9,1.5,14.8z"/>
	</g>
</g>
</svg>
