<?xml version="1.0" encoding="utf-8"?>
<!-- Generator: Adobe Illustrator 21.0.0, SVG Export Plug-In . SVG Version: 6.00 Build 0)  -->
<svg version="1.1" baseProfile="tiny" id="图层_1"
	 xmlns="http://www.w3.org/2000/svg" xmlns:xlink="http://www.w3.org/1999/xlink" x="0px" y="0px" viewBox="0 0 24 24"
	 xml:space="preserve">
<g id="图层_4">
</g>
<g id="图层_3">
</g>
<g id="图层_2">
</g>
<g>
	<g>
		<path fill="#A5A5A5" d="M2,8H1V1.5C1,1.2,1.2,1,1.5,1H8v1H2V8z"/>
	</g>
</g>
<g>
	<g>
		<path fill="#A5A5A5" d="M23,8h-1V2h-6V1h6.5C22.8,1,23,1.2,23,1.5V8z"/>
	</g>
</g>
<g>
	<g>
		<path fill="#A5A5A5" d="M22.5,23H16v-1h6v-6h1v6.5C23,22.8,22.8,23,22.5,23z"/>
	</g>
</g>
<g>
	<g>
		<path fill="#A5A5A5" d="M8,23H1.5C1.2,23,1,22.8,1,22.5V16h1v6h6V23z"/>
	</g>
</g>
<g>
	<g>
		
			<rect x="0.2" y="18.8" transform="matrix(0.7071 -0.7071 0.7071 0.7071 -12.2396 8.9891)" fill="#A5A5A5" width="9.1" height="1"/>
	</g>
</g>
<g>
	<g>
		<rect x="14.7" y="4.2" transform="matrix(0.7071 -0.7071 0.7071 0.7071 2.2985 15.0109)" fill="#A5A5A5" width="9.1" height="1"/>
	</g>
</g>
</svg>
